# xmcd
#
# Track frame offsets: 
#        150
#        23622
#        49500
#        74405
#        92620
#        117597
#        141670
#        165717
#        199435
#        225300
#
# Disc length: 3237 seconds
#
# Revision: 2
# Processed by: cddbd v1.5.2PL0 Copyright (c) Steve Scherf et al.
# Submitted via: ExactAudioCopy v0.99pb5
#
DISCID=8a0ca30a
DTITLE=Joe Louis Walker - Live At Slim's Vol.1
DYEAR=1991
DGENRE=Blues
TTITLE0=I Didn't Know
TTITLE1=Moanin' News
TTITLE2=Don't Play Games
TTITLE3=Don't Mess Up A Good Thing
TTITLE4=Ridin' High
TTITLE5=Fuss and Fight
TTITLE6=One Time Around
TTITLE7=Don't Know Why
TTITLE8=Bit By Bit (Little By Little)
TTITLE9=Hot Tamale Baby
EXTD=1991 Hightone Records  HCD 8025\nProduced by: Joe Louis Walker and 
EXTD=Bruce Bromberg
EXTT0=
EXTT1=
EXTT2=
EXTT3=
EXTT4=\n
EXTT5=
EXTT6=
EXTT7=
EXTT8=
EXTT9=
PLAYORDER=
